<svg width="33" height="48" viewBox="0 0 33 48" fill="none" xmlns="http://www.w3.org/2000/svg">
<path d="M26.6538 0H6.34615C4.66319 0.000385584 3.04928 0.575183 1.85924 1.59803C0.669203 2.62087 0.000448612 4.00803 0 5.45455V42.5455C0.000448612 43.992 0.669203 45.3791 1.85924 46.402C3.04928 47.4248 4.66319 47.9996 6.34615 48H26.6538C28.3368 47.9996 29.9507 47.4248 31.1408 46.402C32.3308 45.3791 32.9996 43.992 33 42.5455V5.45455C32.9996 4.00803 32.3308 2.62087 31.1408 1.59803C29.9507 0.575183 28.3368 0.000385584 26.6538 0ZM16.5 45.8182C15.7469 45.8182 15.0107 45.6262 14.3846 45.2666C13.7584 44.907 13.2703 44.3959 12.9822 43.7979C12.694 43.1999 12.6186 42.5418 12.7655 41.907C12.9124 41.2721 13.275 40.689 13.8076 40.2313C14.3401 39.7736 15.0185 39.4619 15.7572 39.3356C16.4958 39.2093 17.2614 39.2741 17.9571 39.5218C18.6529 39.7696 19.2476 40.189 19.666 40.7272C20.0844 41.2654 20.3077 41.8982 20.3077 42.5455C20.3084 42.9754 20.2103 43.4012 20.0192 43.7986C19.8281 44.1959 19.5476 44.5569 19.1939 44.8609C18.8402 45.1649 18.4202 45.406 17.9579 45.5702C17.4957 45.7345 17.0002 45.8188 16.5 45.8182ZM27.9231 37.0909H5.07692V6.54545H27.9231V37.0909Z" fill="#25304A"/>
</svg>
