<svg width="109" height="109" viewBox="0 0 109 109" fill="none" xmlns="http://www.w3.org/2000/svg">
<path opacity="0.9" d="M71.354 72.922H69.733V35.946C69.733 35.6904 69.6826 35.4372 69.5848 35.2011C69.4869 34.9649 69.3435 34.7503 69.1627 34.5696C68.9819 34.3889 68.7672 34.2456 68.531 34.1478C68.2948 34.0501 68.0416 33.9999 67.786 34H40.541C40.0249 34 39.5299 34.205 39.165 34.57C38.8 34.9349 38.595 35.4299 38.595 35.946V72.922H36.973C36.8448 72.922 36.7179 72.9473 36.5995 72.9965C36.4811 73.0458 36.3736 73.1179 36.2832 73.2088C36.1928 73.2996 36.1212 73.4075 36.0726 73.5261C36.024 73.6447 35.9994 73.7718 36 73.9V75.522H72.327V73.9C72.3277 73.7718 72.303 73.6447 72.2544 73.5261C72.2058 73.4075 72.1342 73.2996 72.0438 73.2088C71.9534 73.1179 71.8459 73.0458 71.7275 72.9965C71.6091 72.9473 71.4822 72.922 71.354 72.922ZM46.379 40.163C46.379 39.9049 46.4815 39.6575 46.664 39.475C46.8465 39.2925 47.094 39.19 47.352 39.19H50.6C50.7278 39.19 50.8543 39.2152 50.9724 39.2641C51.0904 39.313 51.1977 39.3846 51.288 39.475C51.3784 39.5653 51.45 39.6726 51.4989 39.7906C51.5478 39.9087 51.573 40.0352 51.573 40.163V43.406C51.573 43.5338 51.5478 43.6603 51.4989 43.7784C51.45 43.8964 51.3784 44.0037 51.288 44.094C51.1977 44.1844 51.0904 44.256 50.9724 44.3049C50.8543 44.3538 50.7278 44.379 50.6 44.379H47.352C47.094 44.379 46.8465 44.2765 46.664 44.094C46.4815 43.9115 46.379 43.6641 46.379 43.406V40.163ZM46.379 47.947C46.379 47.6889 46.4815 47.4415 46.664 47.259C46.8465 47.0765 47.094 46.974 47.352 46.974H50.6C50.7278 46.974 50.8543 46.9992 50.9724 47.0481C51.0904 47.097 51.1977 47.1686 51.288 47.259C51.3784 47.3493 51.45 47.4566 51.4989 47.5746C51.5478 47.6927 51.573 47.8192 51.573 47.947V51.191C51.573 51.3188 51.5478 51.4453 51.4989 51.5634C51.45 51.6814 51.3784 51.7887 51.288 51.879C51.1977 51.9694 51.0904 52.041 50.9724 52.0899C50.8543 52.1388 50.7278 52.164 50.6 52.164H47.352C47.094 52.164 46.8465 52.0615 46.664 51.879C46.4815 51.6965 46.379 51.4491 46.379 51.191V47.947ZM50.596 59.947H47.352C47.094 59.947 46.8465 59.8445 46.664 59.662C46.4815 59.4795 46.379 59.2321 46.379 58.974V55.732C46.379 55.4739 46.4815 55.2265 46.664 55.044C46.8465 54.8615 47.094 54.759 47.352 54.759H50.6C50.8581 54.759 51.1056 54.8615 51.288 55.044C51.4705 55.2265 51.573 55.4739 51.573 55.732V58.976C51.5727 59.2339 51.4701 59.4811 51.2877 59.6634C51.1052 59.8456 50.8579 59.948 50.6 59.948L50.596 59.947ZM56.759 72.921H51.569V66.111C51.569 65.8529 51.6715 65.6055 51.854 65.423C52.0365 65.2405 52.284 65.138 52.542 65.138H55.786C56.0441 65.138 56.2916 65.2405 56.474 65.423C56.6565 65.6055 56.759 65.8529 56.759 66.111V72.921ZM61.949 58.974C61.949 59.2321 61.8465 59.4795 61.664 59.662C61.4816 59.8445 61.2341 59.947 60.976 59.947H57.732C57.474 59.947 57.2265 59.8445 57.044 59.662C56.8615 59.4795 56.759 59.2321 56.759 58.974V55.732C56.759 55.4739 56.8615 55.2265 57.044 55.044C57.2265 54.8615 57.474 54.759 57.732 54.759H60.976C61.2341 54.759 61.4816 54.8615 61.664 55.044C61.8465 55.2265 61.949 55.4739 61.949 55.732V58.974ZM61.949 51.19C61.949 51.4481 61.8465 51.6955 61.664 51.878C61.4816 52.0605 61.2341 52.163 60.976 52.163H57.732C57.474 52.163 57.2265 52.0605 57.044 51.878C56.8615 51.6955 56.759 51.4481 56.759 51.19V47.947C56.759 47.6889 56.8615 47.4415 57.044 47.259C57.2265 47.0765 57.474 46.974 57.732 46.974H60.976C61.2341 46.974 61.4816 47.0765 61.664 47.259C61.8465 47.4415 61.949 47.6889 61.949 47.947V51.19ZM61.949 43.406C61.949 43.6641 61.8465 43.9115 61.664 44.094C61.4816 44.2765 61.2341 44.379 60.976 44.379H57.732C57.474 44.379 57.2265 44.2765 57.044 44.094C56.8615 43.9115 56.759 43.6641 56.759 43.406V40.163C56.759 39.9049 56.8615 39.6575 57.044 39.475C57.2265 39.2925 57.474 39.19 57.732 39.19H60.976C61.2341 39.19 61.4816 39.2925 61.664 39.475C61.8465 39.6575 61.949 39.9049 61.949 40.163V43.406Z" fill="#25304A"/>
<path d="M54.5 107C83.4949 107 107 83.4949 107 54.5C107 25.5051 83.4949 2 54.5 2C25.5051 2 2 25.5051 2 54.5C2 83.4949 25.5051 107 54.5 107Z" stroke="#25304A" stroke-width="3"/>
</svg>
