<svg width="105" height="105" viewBox="0 0 105 105" fill="none" xmlns="http://www.w3.org/2000/svg">
<path d="M52.5 105C81.4949 105 105 81.4949 105 52.5C105 23.5051 81.4949 0 52.5 0C23.5051 0 0 23.5051 0 52.5C0 81.4949 23.5051 105 52.5 105Z" fill="#BA4E62"/>
<path d="M76.25 49.4471V50.7684C76.25 51.2939 76.0394 51.7979 75.6644 52.1695C75.2894 52.5411 74.7809 52.7498 74.2506 52.7498H73.5833L71.4073 67.8448C71.2718 68.7899 70.7966 69.6548 70.0692 70.2805C69.3417 70.9063 68.4109 71.2509 67.4476 71.251H37.0524C36.0891 71.2509 35.1583 70.9063 34.4308 70.2805C33.7034 69.6548 33.2282 68.7899 33.0927 67.8448L30.9167 52.7498H30.2506C29.9879 52.75 29.7278 52.6989 29.4851 52.5993C29.2424 52.4998 29.0218 52.3539 28.836 52.1699C28.6502 51.9859 28.5029 51.7674 28.4023 51.5269C28.3018 51.2865 28.25 51.0287 28.25 50.7684V49.4471C28.2498 49.1867 28.3015 48.9288 28.402 48.6882C28.5025 48.4476 28.6498 48.2289 28.8356 48.0448C29.0214 47.8607 29.242 47.7147 29.4848 47.6151C29.7276 47.5155 29.9878 47.4643 30.2506 47.4645H35.8613L44.7596 35.3398C45.1755 34.7729 45.8016 34.3929 46.5002 34.2834C47.1987 34.1739 47.9126 34.344 48.4847 34.7561C49.0567 35.1682 49.4402 35.7887 49.5507 36.481C49.6611 37.1733 49.4896 37.8807 49.0737 38.4476L42.4568 47.4645H62.0432L55.4263 38.4476C55.0104 37.8807 54.8389 37.1733 54.9493 36.481C55.0598 35.7887 55.4433 35.1682 56.0153 34.7561C56.5874 34.344 57.3013 34.1739 57.9998 34.2834C58.6984 34.3929 59.3245 34.7729 59.7404 35.3398L68.6387 47.4645H74.2506C74.5133 47.4645 74.7733 47.5158 75.016 47.6154C75.2587 47.7151 75.4791 47.8611 75.6648 48.0452C75.8505 48.2293 75.9977 48.4479 76.0981 48.6884C76.1986 48.929 76.2502 49.1868 76.25 49.4471ZM54.2506 63.9818V54.7324C54.2379 54.2151 54.0216 53.7232 53.6479 53.3618C53.2742 53.0004 52.7728 52.7981 52.2506 52.7981C51.7284 52.7981 51.227 53.0004 50.8533 53.3618C50.4796 53.7232 50.2633 54.2151 50.2506 54.7324V63.9818C50.2633 64.4991 50.4796 64.991 50.8533 65.3524C51.227 65.7139 51.7284 65.9162 52.2506 65.9162C52.7728 65.9162 53.2742 65.7139 53.6479 65.3524C54.0216 64.991 54.2379 64.4991 54.2506 63.9818ZM63.5839 63.9818V54.7324C63.5712 54.2151 63.3549 53.7232 62.9812 53.3618C62.6075 53.0004 62.1061 52.7981 61.5839 52.7981C61.0618 52.7981 60.5603 53.0004 60.1866 53.3618C59.8129 53.7232 59.5966 54.2151 59.5839 54.7324V63.9818C59.5966 64.4991 59.8129 64.991 60.1866 65.3524C60.5603 65.7139 61.0618 65.9162 61.5839 65.9162C62.1061 65.9162 62.6075 65.7139 62.9812 65.3524C63.3549 64.991 63.5712 64.4991 63.5839 63.9818ZM44.9173 63.9818V54.7324C44.9046 54.2151 44.6883 53.7232 44.3146 53.3618C43.9409 53.0004 43.4394 52.7981 42.9173 52.7981C42.3951 52.7981 41.8936 53.0004 41.5199 53.3618C41.1463 53.7232 40.93 54.2151 40.9173 54.7324V63.9818C40.93 64.4991 41.1463 64.991 41.5199 65.3524C41.8936 65.7139 42.3951 65.9162 42.9173 65.9162C43.4394 65.9162 43.9409 65.7139 44.3146 65.3524C44.6883 64.991 44.9046 64.4991 44.9173 63.9818Z" fill="white"/>
</svg>
