<svg width="109" height="109" viewBox="0 0 109 109" fill="none" xmlns="http://www.w3.org/2000/svg">
<path d="M75.047 43.17H63.447V39.325C63.447 36.568 61.667 33.5 58.913 33.5H49.634C46.877 33.5 45.071 36.568 45.071 39.325V43.17H34.434C33.9216 43.1716 33.4306 43.3759 33.0682 43.7382C32.7059 44.1006 32.5016 44.5916 32.5 45.104V73.147C32.5018 73.6593 32.7062 74.15 33.0686 74.5121C33.4309 74.8743 33.9217 75.0784 34.434 75.08H75.047C75.5594 75.0784 76.0504 74.8741 76.4128 74.5118C76.7751 74.1494 76.9794 73.6584 76.981 73.146V45.104C76.9794 44.5916 76.7751 44.1006 76.4128 43.7382C76.0504 43.3759 75.5594 43.1716 75.047 43.17ZM59.576 72.18H48.939V71.148C48.939 71.126 49.532 71.097 49.815 71.063C50.0664 71.037 50.3136 70.9799 50.551 70.893C50.9082 70.7932 51.2274 70.5892 51.468 70.307C51.6819 70.0102 51.8105 69.6606 51.84 69.296V59.403C51.7969 59.0228 51.651 58.6615 51.418 58.358C51.2207 58.0666 50.9637 57.8205 50.664 57.636C50.4375 57.4584 50.1792 57.3257 49.903 57.245C49.489 57.12 48.939 57.045 48.939 57.006V55.765L56.844 55.323L56.675 55.577V69.077C56.7381 69.4512 56.9028 69.8009 57.151 70.088C57.3658 70.3715 57.6578 70.5871 57.992 70.709C58.2327 70.8169 58.4806 70.9078 58.734 70.981C59.007 71.06 59.576 71.116 59.576 71.151V72.18ZM50.504 49.203C50.5005 48.7847 50.5875 48.3707 50.7591 47.9892C50.9307 47.6077 51.1827 47.2679 51.498 46.993C52.1448 46.4028 52.9889 46.0756 53.8645 46.0756C54.7401 46.0756 55.5842 46.4028 56.231 46.993C56.544 47.2693 56.794 47.6096 56.9641 47.9909C57.1342 48.3722 57.2204 48.7855 57.217 49.203C57.2206 49.6198 57.1335 50.0324 56.9619 50.4123C56.7903 50.7922 56.5382 51.1302 56.223 51.403C55.575 51.9881 54.733 52.312 53.86 52.312C52.987 52.312 52.145 51.9881 51.497 51.403C51.1819 51.1302 50.9299 50.7921 50.7584 50.4123C50.587 50.0324 50.5002 49.6198 50.504 49.203ZM60.543 43.17H47.972V39.325C47.972 38.293 49.016 36.401 50.048 36.401H57.834C58.864 36.401 60.543 38.293 60.543 39.325V43.17Z" fill="#25304A"/>
<path d="M54.5 107C83.4949 107 107 83.4949 107 54.5C107 25.5051 83.4949 2 54.5 2C25.5051 2 2 25.5051 2 54.5C2 83.4949 25.5051 107 54.5 107Z" stroke="#25304A" stroke-width="3"/>
</svg>
