<svg width="43" height="43" viewBox="0 0 43 43" fill="none" xmlns="http://www.w3.org/2000/svg">
<path d="M42.334 21.1625C42.3331 17.1177 41.1734 13.1578 38.992 9.75168C36.8107 6.34552 33.6991 3.63567 30.0256 1.94289C26.3521 0.25011 22.2705 -0.354706 18.2639 0.200035C14.2574 0.754776 10.4937 2.44584 7.4183 5.07306C4.34294 7.70028 2.0847 11.1536 0.910902 15.0243C-0.262891 18.8951 -0.303088 23.021 0.795071 26.9139C1.89323 30.8067 4.08376 34.3034 7.10736 36.99C10.131 39.6767 13.861 41.4408 17.856 42.0735V27.2815H12.479V21.1625H17.856V16.4995C17.856 11.1995 21.014 8.26545 25.851 8.26545C27.4386 8.28744 29.0225 8.42547 30.59 8.67845V13.8845H27.92C25.291 13.8845 24.471 15.5165 24.471 17.1905V21.1635H30.341L29.402 27.2825H24.47V42.0735C29.4496 41.2853 33.9845 38.7463 37.2592 34.9131C40.5339 31.0799 42.3334 26.204 42.334 21.1625Z" fill="#25304A"/>
</svg>
