<svg width="42" height="42" viewBox="0 0 42 42" fill="none" xmlns="http://www.w3.org/2000/svg">
<path d="M20.587 0C14.994 0 14.3 0.026 12.1 0.124C10.3913 0.159286 8.70092 0.482834 7.1 1.081C5.72673 1.59767 4.48278 2.40786 3.455 3.455C2.40693 4.48202 1.5966 5.72619 1.081 7.1C0.481999 8.70068 0.158423 10.3913 0.124 12.1C0.021 14.3 0 14.994 0 20.587C0 26.18 0.026 26.878 0.124 29.074C0.159458 30.7826 0.483 32.473 1.081 34.074C1.59794 35.4477 2.40807 36.6923 3.455 37.721C4.48257 38.7682 5.7266 39.5781 7.1 40.094C8.70102 40.6918 10.3914 41.0154 12.1 41.051C14.3 41.151 14.994 41.175 20.587 41.175C26.18 41.175 26.878 41.149 29.074 41.051C30.7825 41.0147 32.4728 40.6912 34.074 40.094C35.4421 39.5654 36.6845 38.7566 37.7216 37.7196C38.7586 36.6825 39.5674 35.4401 40.096 34.072C40.694 32.471 41.0175 30.7806 41.053 29.072C41.153 26.872 41.177 26.178 41.177 20.585C41.177 14.992 41.151 14.294 41.053 12.098C41.0169 10.3894 40.6934 8.69915 40.096 7.098C39.578 5.72552 38.7672 4.48237 37.72 3.455C36.6927 2.40634 35.4477 1.59594 34.073 1.081C32.4723 0.482185 30.7817 0.158615 29.073 0.124C26.879 0.021 26.18 0 20.587 0ZM20.587 3.706C26.087 3.706 26.737 3.733 28.908 3.828C30.2131 3.84372 31.5058 4.08459 32.729 4.54C33.6183 4.87994 34.4259 5.40349 35.0993 6.0765C35.7726 6.74952 36.2966 7.5569 36.637 8.446C37.0909 9.66952 37.3308 10.9621 37.346 12.267C37.446 14.439 37.466 15.091 37.466 20.588C37.466 26.085 37.44 26.738 37.339 28.909C37.3153 30.2142 37.0712 31.5061 36.617 32.73C36.2818 33.6231 35.7551 34.4321 35.074 35.1C34.4084 35.7816 33.5996 36.3066 32.706 36.637C31.4779 37.0908 30.1811 37.3306 28.872 37.346C26.686 37.446 26.043 37.466 20.536 37.466C15.029 37.466 14.384 37.44 12.2 37.339C10.8899 37.3153 9.59309 37.0712 8.364 36.617C7.47059 36.2858 6.66279 35.7585 6 35.074C5.31126 34.4129 4.78309 33.6029 4.456 32.706C4.0025 31.4774 3.75877 30.1814 3.735 28.872C3.658 26.71 3.635 26.043 3.635 20.562C3.635 15.081 3.662 14.41 3.735 12.222C3.75862 10.9129 4.00235 9.61718 4.456 8.389C4.77801 7.4893 5.30688 6.67783 6 6.02C6.65646 5.3283 7.4662 4.80046 8.364 4.479C9.58345 4.02251 10.8721 3.77831 12.174 3.757C14.361 3.68 15.005 3.657 20.51 3.657L20.587 3.708V3.706ZM20.587 10.016C18.496 10.016 16.452 10.6361 14.7134 11.7978C12.9748 12.9595 11.6198 14.6107 10.8196 16.5425C10.0195 18.4743 9.81021 20.6001 10.2182 22.6509C10.6262 24.7017 11.6332 26.5854 13.1118 28.0639C14.5904 29.5424 16.4743 30.5492 18.5251 30.957C20.576 31.3648 22.7017 31.1553 24.6334 30.355C26.5652 29.5546 28.2162 28.1994 29.3778 26.4608C30.5393 24.7221 31.1592 22.678 31.159 20.587C31.159 19.1987 30.8855 17.824 30.3542 16.5414C29.8229 15.2588 29.0442 14.0934 28.0625 13.1118C27.0808 12.1302 25.9153 11.3516 24.6327 10.8204C23.35 10.2892 21.9753 10.0159 20.587 10.016ZM20.587 27.45C19.2298 27.45 17.9031 27.0476 16.7747 26.2935C15.6462 25.5395 14.7667 24.4678 14.2473 23.214C13.728 21.9601 13.5921 20.5804 13.8569 19.2493C14.1216 17.9182 14.7752 16.6955 15.7348 15.7358C16.6945 14.7762 17.9172 14.1226 19.2483 13.8579C20.5794 13.5931 21.9591 13.729 23.213 14.2483C24.4668 14.7677 25.5385 15.6472 26.2925 16.7757C27.0466 17.9041 27.449 19.2308 27.449 20.588C27.4491 21.4892 27.2717 22.3815 26.9269 23.2141C26.5821 24.0467 26.0767 24.8032 25.4395 25.4405C24.8022 26.0777 24.0457 26.5831 23.2131 26.9279C22.3805 27.2727 21.4882 27.4501 20.587 27.45ZM34.048 9.6C34.0482 10.0886 33.9035 10.5662 33.6322 10.9725C33.3609 11.3789 32.9752 11.6956 32.5239 11.8827C32.0726 12.0698 31.5759 12.1189 31.0967 12.0237C30.6175 11.9285 30.1773 11.6933 29.8318 11.3479C29.4863 11.0025 29.2509 10.5624 29.1555 10.0832C29.0601 9.60408 29.109 9.10739 29.2959 8.656C29.4828 8.20461 29.7994 7.81879 30.2056 7.54734C30.6118 7.27589 31.0894 7.131 31.578 7.131C32.2327 7.13153 32.8605 7.39179 33.3236 7.85468C33.7867 8.31756 34.0472 8.94525 34.048 9.6Z" fill="#25304A"/>
</svg>
