<svg width="33" height="44" viewBox="0 0 33 44" fill="none" xmlns="http://www.w3.org/2000/svg">
<path d="M16.5 0C7.38788 0 0 7.38788 0 16.5C0 20.0881 1.17631 23.3805 3.13156 26.0769C3.16663 26.1415 3.17212 26.2137 3.212 26.2756L14.212 42.7756C14.7221 43.5408 15.5815 44 16.5 44C17.4185 44 18.2779 43.5408 18.788 42.7756L29.788 26.2756C29.8286 26.2137 29.8334 26.1415 29.8684 26.0769C31.8237 23.3805 33 20.0881 33 16.5C33 7.38788 25.6121 0 16.5 0ZM16.5 22C13.4626 22 11 19.5374 11 16.5C11 13.4626 13.4626 11 16.5 11C19.5374 11 22 13.4626 22 16.5C22 19.5374 19.5374 22 16.5 22Z" fill="#25304A"/>
</svg>
