<svg width="52" height="49" viewBox="0 0 52 49" fill="none" xmlns="http://www.w3.org/2000/svg">
<path d="M23.6317 4.42973C24.249 3.04472 24.5578 2.35221 24.9877 2.13896C25.361 1.95368 25.7994 1.95368 26.1727 2.13896C26.6026 2.35221 26.9114 3.04472 27.5287 4.42973L32.4461 15.4615C32.6287 15.871 32.7199 16.0757 32.8613 16.2325C32.9861 16.3712 33.1389 16.4822 33.3093 16.5581C33.5021 16.644 33.725 16.6675 34.1709 16.7145L46.1823 17.9823C47.6903 18.1414 48.4442 18.221 48.7799 18.5639C49.0714 18.8618 49.2069 19.2788 49.1461 19.6912C49.0762 20.1659 48.513 20.6733 47.3866 21.6885L38.4141 29.7744C38.0813 30.0744 37.9146 30.2245 37.8093 30.4072C37.7159 30.5691 37.6575 30.7485 37.6381 30.9341C37.6159 31.144 37.6623 31.3632 37.7554 31.8019L40.2615 43.6171C40.5762 45.1005 40.7335 45.8421 40.5111 46.2672C40.3178 46.6368 39.9631 46.8944 39.5522 46.964C39.0791 47.044 38.4223 46.6653 37.1087 45.9077L26.6461 39.8731C26.2578 39.6491 26.0637 39.5373 25.8573 39.4933C25.6746 39.4547 25.4858 39.4547 25.3031 39.4933C25.0967 39.5373 24.9026 39.6491 24.5143 39.8731L14.0517 45.9077C12.7382 46.6653 12.0814 47.044 11.6083 46.964C11.1973 46.8944 10.8426 46.6368 10.6494 46.2672C10.427 45.8421 10.5843 45.1005 10.899 43.6171L13.405 31.8019C13.498 31.3632 13.5445 31.144 13.5224 30.9341C13.5029 30.7485 13.4446 30.5691 13.3512 30.4072C13.2458 30.2245 13.0793 30.0744 12.7463 29.7744L3.77396 21.6885C2.64753 20.6733 2.0843 20.1659 2.01428 19.6912C1.95348 19.2788 2.08897 18.8618 2.38054 18.5639C2.71622 18.221 3.47022 18.1414 4.97822 17.9823L16.9897 16.7145C17.4355 16.6675 17.6584 16.644 17.8511 16.5581C18.0216 16.4822 18.1743 16.3712 18.2993 16.2325C18.4405 16.0757 18.5317 15.871 18.7143 15.4615L23.6317 4.42973Z" fill="#25304A" stroke="#25304A" stroke-width="4" stroke-linecap="round" stroke-linejoin="round"/>
</svg>
