<svg width="10" height="121" viewBox="0 0 10 121" fill="none" xmlns="http://www.w3.org/2000/svg">
<path d="M0.668945 0.260431L9.39622 0.260431L9.39622 3.2093C9.39622 3.89111 9.27974 4.45077 9.04679 4.88827C8.81667 5.32577 8.49991 5.64964 8.0965 5.85986C7.69309 6.07009 7.23429 6.1752 6.72008 6.1752C6.20588 6.1752 5.74991 6.07009 5.35218 5.85986C4.95446 5.64964 4.64196 5.32719 4.41468 4.89253C4.19025 4.45787 4.07804 3.90248 4.07804 3.22634L4.07804 0.839977L5.03258 0.839977L5.03258 3.19225C5.03258 3.65816 5.10076 4.03316 5.23713 4.31725C5.37349 4.60418 5.56667 4.81157 5.81667 4.93941C6.06951 5.07009 6.37065 5.13543 6.72008 5.13543C7.06951 5.13543 7.37491 5.07009 7.63627 4.93941C7.89764 4.80873 8.09934 4.59992 8.24139 4.31299C8.38627 4.02606 8.45872 3.64679 8.45872 3.1752L8.45872 1.31725L0.668945 1.31725L0.668945 0.260431ZM4.5894 4.36839L0.668945 6.51611L0.668945 5.28884L4.5894 3.1752L4.5894 4.36839ZM0.515536 9.72599C0.515536 9.31121 0.593661 8.93479 0.749911 8.59672C0.909002 8.25866 1.13769 7.99019 1.43599 7.79133C1.73713 7.59246 2.10076 7.49303 2.5269 7.49303C2.9019 7.49303 3.20588 7.56689 3.43883 7.71462C3.67463 7.86235 3.85929 8.05979 3.99281 8.30695C4.12633 8.55411 4.22576 8.82684 4.2911 9.12513C4.35929 9.42627 4.41326 9.72883 4.45304 10.0328C4.50417 10.4305 4.54252 10.753 4.56809 11.0001C4.5965 11.2501 4.64338 11.432 4.70872 11.5456C4.77406 11.6621 4.88769 11.7203 5.04963 11.7203L5.08372 11.7203C5.50417 11.7203 5.83088 11.6052 6.06383 11.3751C6.29679 11.1479 6.41326 10.8027 6.41326 10.3396C6.41326 9.85951 6.30815 9.48309 6.09792 9.21036C5.8877 8.93763 5.66326 8.74587 5.42463 8.63508L5.76554 7.68053C6.16326 7.85099 6.47292 8.07826 6.69451 8.36235C6.91895 8.64928 7.0752 8.96178 7.16326 9.29985C7.25417 9.64076 7.29963 9.97599 7.29963 10.3055C7.29963 10.5158 7.27406 10.7572 7.22292 11.03C7.17463 11.3055 7.07377 11.5712 6.92037 11.8268C6.76696 12.0854 6.53542 12.2998 6.22576 12.4703C5.9161 12.6408 5.50133 12.726 4.98144 12.726L0.668945 12.726L0.668945 11.7203L1.55531 11.7203L1.55531 11.6692C1.41326 11.601 1.26127 11.4873 1.09934 11.3283C0.937411 11.1692 0.799627 10.9575 0.68599 10.6933C0.572354 10.4291 0.515536 10.1067 0.515536 9.72599ZM1.41894 9.87939C1.41894 10.2771 1.49707 10.6123 1.65332 10.8851C1.80957 11.1606 2.01127 11.368 2.25843 11.5072C2.50559 11.6493 2.76554 11.7203 3.03826 11.7203L3.95872 11.7203C3.90758 11.6777 3.86071 11.5839 3.81809 11.4391C3.77832 11.297 3.74281 11.1322 3.71156 10.9447C3.68315 10.7601 3.65758 10.5797 3.63485 10.4035C3.61497 10.2302 3.59792 10.0896 3.58372 9.98167C3.54963 9.7203 3.49423 9.47599 3.41752 9.24871C3.34366 9.02428 3.23144 8.84246 3.08088 8.70326C2.93315 8.56689 2.73145 8.49871 2.47576 8.49871C2.12633 8.49871 1.86213 8.62797 1.68315 8.8865C1.50701 9.14786 1.41894 9.47883 1.41894 9.87939ZM0.532581 17.2207C0.532581 16.607 0.677467 16.0786 0.96724 15.6354C1.25701 15.1922 1.65616 14.8513 2.16468 14.6127C2.67321 14.3741 3.25417 14.2547 3.90758 14.2547C4.57235 14.2547 5.159 14.3769 5.66752 14.6212C6.17889 14.8684 6.57804 15.2121 6.86497 15.6525C7.15474 16.0957 7.29963 16.6127 7.29963 17.2036C7.29963 17.6638 7.2144 18.0786 7.04394 18.4479C6.87349 18.8172 6.63485 19.1198 6.32804 19.3556C6.02122 19.5914 5.66326 19.7377 5.25417 19.7945L5.25417 18.7888C5.55247 18.7121 5.81667 18.5417 6.04679 18.2775C6.27974 18.0161 6.39622 17.6638 6.39622 17.2207C6.39622 16.8286 6.29394 16.4849 6.0894 16.1894C5.88769 15.8968 5.60218 15.6681 5.23287 15.5033C4.86639 15.3414 4.43599 15.2604 3.94167 15.2604C3.43599 15.2604 2.99565 15.34 2.62065 15.4991C2.24565 15.661 1.95446 15.8883 1.74707 16.1809C1.53968 16.4763 1.43599 16.8229 1.43599 17.2207C1.43599 17.482 1.48144 17.7192 1.57235 17.9323C1.66326 18.1454 1.79394 18.3258 1.9644 18.4735C2.13485 18.6212 2.3394 18.7263 2.57804 18.7888L2.57804 19.7945C2.19167 19.7377 1.84366 19.5971 1.534 19.3726C1.22718 19.1511 0.982865 18.857 0.801047 18.4905C0.622069 18.1269 0.532581 17.7036 0.532581 17.2207ZM4.60644 22.2704L0.668944 22.2704L0.668944 21.2647L9.39622 21.2647L9.39622 22.2704L6.19167 22.2704L6.19167 22.3556C6.52974 22.509 6.79821 22.7391 6.99707 23.0459C7.19877 23.3556 7.29963 23.7675 7.29963 24.2817C7.29963 24.7278 7.21014 25.1184 7.03116 25.4536C6.85502 25.7888 6.58372 26.0488 6.21724 26.2334C5.8536 26.4209 5.39054 26.5147 4.82803 26.5147L0.668944 26.5147L0.668944 25.509L4.75985 25.509C5.27974 25.509 5.68173 25.3741 5.96582 25.1042C6.25275 24.8371 6.39622 24.4664 6.39622 23.992C6.39622 23.6624 6.32661 23.367 6.18741 23.1056C6.04821 22.8471 5.84508 22.6425 5.57804 22.492C5.31099 22.3442 4.98713 22.2704 4.60644 22.2704ZM0.515535 30.2807C0.515535 29.8659 0.59366 29.4895 0.74991 29.1514C0.909001 28.8133 1.13769 28.5449 1.43599 28.346C1.73713 28.1471 2.10076 28.0477 2.5269 28.0477C2.9019 28.0477 3.20588 28.1216 3.43883 28.2693C3.67463 28.417 3.85929 28.6145 3.99281 28.8616C4.12633 29.1088 4.22576 29.3815 4.2911 29.6798C4.35928 29.981 4.41326 30.2835 4.45303 30.5875C4.50417 30.9852 4.54252 31.3077 4.56809 31.5548C4.5965 31.8048 4.64338 31.9866 4.70872 32.1003C4.77406 32.2168 4.88769 32.275 5.04963 32.275L5.08372 32.275C5.50417 32.275 5.83088 32.1599 6.06383 31.9298C6.29678 31.7025 6.41326 31.3574 6.41326 30.8943C6.41326 30.4142 6.30815 30.0378 6.09792 29.765C5.88769 29.4923 5.66326 29.3006 5.42463 29.1898L5.76554 28.2352C6.16326 28.4057 6.47292 28.6329 6.69451 28.917C6.91894 29.204 7.07519 29.5165 7.16326 29.8545C7.25417 30.1954 7.29963 30.5307 7.29963 30.8602C7.29963 31.0704 7.27406 31.3119 7.22292 31.5847C7.17463 31.8602 7.07377 32.1258 6.92036 32.3815C6.76696 32.64 6.53542 32.8545 6.22576 33.025C5.9161 33.1954 5.50133 33.2807 4.98144 33.2807L0.668944 33.2807L0.668944 32.275L1.55531 32.275L1.55531 32.2239C1.41326 32.1557 1.26127 32.042 1.09934 31.8829C0.93741 31.7239 0.799626 31.5122 0.685989 31.248C0.572353 30.9838 0.515535 30.6614 0.515535 30.2807ZM1.41894 30.4341C1.41894 30.8318 1.49707 31.167 1.65332 31.4398C1.80957 31.7153 2.01127 31.9227 2.25843 32.0619C2.50559 32.204 2.76553 32.275 3.03826 32.275L3.95872 32.275C3.90758 32.2324 3.86071 32.1386 3.81809 31.9937C3.77832 31.8517 3.74281 31.6869 3.71156 31.4994C3.68315 31.3148 3.65758 31.1344 3.63485 30.9582C3.61497 30.7849 3.59792 30.6443 3.58372 30.5364C3.54963 30.275 3.49423 30.0307 3.41752 29.8034C3.34366 29.579 3.23144 29.3971 3.08088 29.2579C2.93315 29.1216 2.73144 29.0534 2.47576 29.0534C2.12633 29.0534 1.86213 29.1827 1.68315 29.4412C1.50701 29.7025 1.41894 30.0335 1.41894 30.4341ZM0.668944 39.9742L7.2144 37.9799L7.2144 39.0367L2.20303 40.4515L2.20303 40.5197L7.2144 41.9174L7.2144 42.9913L2.22008 44.3719L2.22008 44.4401L7.2144 45.8549L7.2144 46.9117L0.668943 44.9174L0.668943 43.9288L5.69735 42.4969L5.69735 42.3947L0.668943 40.9628L0.668944 39.9742ZM0.668943 48.2413L7.2144 48.2413L7.2144 49.2469L0.668943 49.2469L0.668943 48.2413ZM8.30531 48.7526C8.30531 48.5566 8.37207 48.3876 8.50559 48.2455C8.63911 48.1063 8.79962 48.0367 8.98712 48.0367C9.17462 48.0367 9.33514 48.1063 9.46866 48.2455C9.60218 48.3876 9.66894 48.5566 9.66894 48.7526C9.66894 48.9486 9.60218 49.1163 9.46866 49.2555C9.33514 49.3975 9.17462 49.4685 8.98712 49.4685C8.79962 49.4685 8.63911 49.3975 8.50559 49.2555C8.37207 49.1163 8.30531 48.9486 8.30531 48.7526ZM7.2144 53.9355L6.36213 53.9355L6.36213 50.5435L7.2144 50.5435L7.2144 53.9355ZM8.78258 51.5321L8.78258 52.5378L2.54394 52.5378C2.25985 52.5378 2.04678 52.579 1.90474 52.6614C1.76553 52.7466 1.67178 52.8545 1.62349 52.9852C1.57803 53.1187 1.55531 53.2594 1.55531 53.4071C1.55531 53.5179 1.56099 53.6088 1.57235 53.6798C1.58656 53.7508 1.59792 53.8077 1.60644 53.8503L0.703034 54.0548C0.677466 53.9866 0.651897 53.8915 0.626329 53.7693C0.59792 53.6471 0.583716 53.4923 0.583716 53.3048C0.583716 53.0207 0.644795 52.7423 0.766954 52.4696C0.889113 52.1997 1.07519 51.9753 1.32519 51.7963C1.57519 51.6202 1.89053 51.5321 2.27122 51.5321L8.78258 51.5321ZM4.60644 56.5946L0.668943 56.5946L0.668943 55.5889L9.39622 55.5889L9.39622 56.5946L6.19167 56.5946L6.19167 56.6798C6.52974 56.8332 6.7982 57.0633 6.99707 57.3702C7.19877 57.6798 7.29962 58.0918 7.29962 58.606C7.29962 59.052 7.21014 59.4426 7.03116 59.7778C6.85502 60.1131 6.58372 60.373 6.21724 60.5577C5.8536 60.7452 5.39053 60.8389 4.82803 60.8389L0.668943 60.8389L0.668943 59.8332L4.75985 59.8332C5.27974 59.8332 5.68173 59.6983 5.96582 59.4284C6.25275 59.1614 6.39622 58.7906 6.39622 58.3162C6.39622 57.9866 6.32661 57.6912 6.18741 57.4298C6.0482 57.1713 5.84508 56.9668 5.57803 56.8162C5.31099 56.6685 4.98712 56.5946 4.60644 56.5946ZM9.39622 67.0594L0.668942 67.0594L0.668942 66.0538L9.39622 66.0538L9.39622 67.0594ZM0.532579 71.5605C0.532579 70.9696 0.673204 70.4511 0.954454 70.0051C1.2357 69.5619 1.62917 69.2153 2.13485 68.9653C2.64053 68.7182 3.23144 68.5946 3.90758 68.5946C4.5894 68.5946 5.18457 68.7182 5.69309 68.9653C6.20161 69.2153 6.5965 69.5619 6.87775 70.0051C7.159 70.4511 7.29962 70.9696 7.29962 71.5605C7.29962 72.1514 7.159 72.6685 6.87775 73.1116C6.5965 73.5577 6.20161 73.9043 5.69309 74.1514C5.18457 74.4014 4.5894 74.5264 3.90758 74.5264C3.23144 74.5264 2.64053 74.4014 2.13485 74.1514C1.62917 73.9043 1.2357 73.5577 0.954453 73.1116C0.673203 72.6685 0.532578 72.1514 0.532579 71.5605ZM1.43599 71.5605C1.43599 72.0094 1.55104 72.3787 1.78116 72.6685C2.01127 72.9582 2.31383 73.1727 2.68883 73.3119C3.06383 73.4511 3.47008 73.5207 3.90758 73.5207C4.34508 73.5207 4.75275 73.4511 5.13059 73.3119C5.50843 73.1727 5.81383 72.9582 6.04678 72.6685C6.27974 72.3787 6.39622 72.0094 6.39622 71.5605C6.39622 71.1116 6.27974 70.7423 6.04678 70.4525C5.81383 70.1628 5.50843 69.9483 5.13059 69.8091C4.75275 69.6699 4.34508 69.6003 3.90758 69.6003C3.47008 69.6003 3.06383 69.6699 2.68883 69.8091C2.31383 69.9483 2.01127 70.1628 1.78116 70.4525C1.55104 70.7423 1.43599 71.1116 1.43599 71.5605ZM7.2144 81.1795L0.668942 78.759L0.668942 77.7363L7.2144 75.3158L7.2144 76.4067L1.99849 78.2136L1.99849 78.2817L7.2144 80.0886L7.2144 81.1795ZM0.532578 85.0168C0.532578 84.3861 0.671783 83.8421 0.950192 83.3847C1.23144 82.9302 1.62349 82.5793 2.12633 82.3322C2.63201 82.0878 3.22008 81.9657 3.89053 81.9657C4.56099 81.9657 5.1519 82.0878 5.66326 82.3322C6.17746 82.5793 6.57803 82.9231 6.86496 83.3634C7.15474 83.8066 7.29962 84.3236 7.29962 84.9146C7.29962 85.2555 7.24281 85.5921 7.12917 85.9245C7.01553 86.2569 6.83087 86.5594 6.57519 86.8322C6.32235 87.1049 5.98712 87.3222 5.56951 87.4842C5.1519 87.6461 4.63769 87.7271 4.0269 87.7271L3.60076 87.7271L3.60076 82.6816L4.47008 82.6816L4.47008 86.7043C4.8394 86.7043 5.16894 86.6305 5.45871 86.4827C5.74849 86.3378 5.97718 86.1305 6.14479 85.8606C6.31241 85.5935 6.39621 85.2782 6.39621 84.9146C6.39621 84.514 6.29678 84.1674 6.09792 83.8748C5.9019 83.585 5.64621 83.362 5.33087 83.2057C5.01553 83.0495 4.67746 82.9714 4.31667 82.9714L3.73712 82.9714C3.24281 82.9714 2.82377 83.0566 2.48002 83.2271C2.13911 83.4003 1.87917 83.6404 1.70019 83.9472C1.52406 84.254 1.43599 84.6106 1.43599 85.0168C1.43599 85.281 1.47292 85.5197 1.54678 85.7327C1.62349 85.9486 1.73712 86.1347 1.88769 86.291C2.0411 86.4472 2.23144 86.568 2.45871 86.6532L2.18599 87.6248C1.85644 87.5225 1.56667 87.3506 1.31667 87.1092C1.06951 86.8677 0.876328 86.5694 0.737123 86.2143C0.60076 85.8592 0.532578 85.46 0.532578 85.0168ZM0.668941 92.6148L1.43599 92.6148L4.5894 95.4955C4.95871 95.8336 5.27974 96.112 5.55246 96.3307C5.82803 96.5495 6.08655 96.7114 6.32803 96.8165C6.57235 96.9245 6.82803 96.9785 7.09508 96.9785C7.4019 96.9785 7.66752 96.9046 7.89195 96.7569C8.11638 96.612 8.28968 96.4131 8.41184 96.1603C8.534 95.9074 8.59508 95.6234 8.59508 95.308C8.59508 94.9728 8.52548 94.6802 8.38627 94.4302C8.24991 94.183 8.05815 93.9913 7.81099 93.8549C7.56383 93.7214 7.27405 93.6546 6.94167 93.6546L6.94167 92.6489C7.45303 92.6489 7.9019 92.7668 8.28826 93.0026C8.67462 93.2384 8.97576 93.5594 9.19167 93.9657C9.40758 94.3748 9.51553 94.8336 9.51553 95.3421C9.51553 95.8535 9.40758 96.3066 9.19167 96.7015C8.97576 97.0964 8.68457 97.406 8.31809 97.6305C7.95161 97.8549 7.54394 97.9671 7.09508 97.9671C6.77405 97.9671 6.46013 97.9089 6.15332 97.7924C5.84934 97.6788 5.50985 97.4799 5.13485 97.1958C4.76269 96.9146 4.30815 96.5239 3.77121 96.0239L1.67462 94.0637L1.60644 94.0637L1.60644 98.1205L0.668941 98.1205L0.668941 92.6148ZM0.549623 102.727C0.549623 102.085 0.724339 101.538 1.07377 101.086C1.42604 100.635 1.93599 100.29 2.6036 100.051C3.27405 99.8123 4.08371 99.693 5.03258 99.693C5.97576 99.693 6.78116 99.8123 7.44877 100.051C8.11923 100.292 8.63059 100.639 8.98286 101.091C9.33798 101.545 9.51553 102.091 9.51553 102.727C9.51553 103.363 9.33798 103.907 8.98286 104.359C8.63059 104.814 8.11922 105.16 7.44877 105.399C6.78116 105.64 5.97576 105.761 5.03258 105.761C4.08371 105.761 3.27405 105.642 2.6036 105.403C1.93599 105.165 1.42604 104.819 1.07377 104.368C0.724338 103.916 0.549623 103.369 0.549623 102.727ZM1.48712 102.727C1.48712 103.363 1.79394 103.858 2.40758 104.21C3.02121 104.562 3.89621 104.738 5.03258 104.738C5.78826 104.738 6.43172 104.657 6.96298 104.496C7.49423 104.336 7.89905 104.106 8.17746 103.805C8.45587 103.507 8.59508 103.148 8.59508 102.727C8.59508 102.096 8.284 101.603 7.66184 101.248C7.04252 100.893 6.1661 100.716 5.03258 100.716C4.2769 100.716 3.63485 100.795 3.10644 100.954C2.57803 101.113 2.17604 101.342 1.90047 101.64C1.62491 101.942 1.48712 102.304 1.48712 102.727ZM0.668941 107.38L1.43599 107.38L4.5894 110.261C4.95871 110.599 5.27974 110.878 5.55246 111.096C5.82803 111.315 6.08655 111.477 6.32803 111.582C6.57235 111.69 6.82803 111.744 7.09508 111.744C7.40189 111.744 7.66752 111.67 7.89195 111.523C8.11638 111.378 8.28968 111.179 8.41184 110.926C8.534 110.673 8.59508 110.389 8.59508 110.074C8.59508 109.738 8.52547 109.446 8.38627 109.196C8.24991 108.949 8.05815 108.757 7.81099 108.621C7.56383 108.487 7.27405 108.42 6.94167 108.42L6.94167 107.415C7.45303 107.415 7.9019 107.532 8.28826 107.768C8.67462 108.004 8.97576 108.325 9.19167 108.731C9.40758 109.14 9.51553 109.599 9.51553 110.108C9.51553 110.619 9.40758 111.072 9.19167 111.467C8.97576 111.862 8.68457 112.172 8.31809 112.396C7.95161 112.621 7.54394 112.733 7.09508 112.733C6.77405 112.733 6.46013 112.674 6.15332 112.558C5.84934 112.444 5.50985 112.246 5.13485 111.961C4.76269 111.68 4.30815 111.29 3.77121 110.79L1.67462 108.829L1.60644 108.829L1.60644 112.886L0.66894 112.886L0.668941 107.38ZM0.66894 114.646L1.43599 114.646L4.58939 117.527C4.95871 117.865 5.27974 118.143 5.55246 118.362C5.82803 118.581 6.08655 118.743 6.32803 118.848C6.57235 118.956 6.82803 119.01 7.09508 119.01C7.40189 119.01 7.66752 118.936 7.89195 118.788C8.11638 118.643 8.28968 118.444 8.41184 118.192C8.534 117.939 8.59508 117.655 8.59508 117.339C8.59508 117.004 8.52547 116.711 8.38627 116.461C8.24991 116.214 8.05815 116.023 7.81099 115.886C7.56383 115.753 7.27405 115.686 6.94167 115.686L6.94167 114.68C7.45303 114.68 7.9019 114.798 8.28826 115.034C8.67462 115.27 8.97576 115.591 9.19167 115.997C9.40758 116.406 9.51553 116.865 9.51553 117.373C9.51553 117.885 9.40758 118.338 9.19167 118.733C8.97576 119.128 8.68457 119.437 8.31809 119.662C7.95161 119.886 7.54394 119.998 7.09508 119.998C6.77405 119.998 6.46013 119.94 6.15332 119.824C5.84934 119.71 5.50985 119.511 5.13485 119.227C4.76269 118.946 4.30814 118.555 3.77121 118.055L1.67462 116.095L1.60644 116.095L1.60644 120.152L0.66894 120.152L0.66894 114.646Z" fill="black"/>
</svg>
